<svg xmlns="http://www.w3.org/2000/svg" viewBox="0 0 1200 900">
  <defs>
    <linearGradient id="bg" x1="0" y1="0" x2="0" y2="1">
      <stop offset="0" stop-color="#f5f5f7"/>
      <stop offset="1" stop-color="#e8e8ed"/>
    </linearGradient>
    <linearGradient id="screen" x1="0" y1="0" x2="1" y2="1">
      <stop offset="0" stop-color="#1d2b53"/>
      <stop offset="0.5" stop-color="#7e2553"/>
      <stop offset="1" stop-color="#ff7043"/>
    </linearGradient>
    <linearGradient id="alu" x1="0" y1="0" x2="0" y2="1">
      <stop offset="0" stop-color="#e2e3e6"/>
      <stop offset="1" stop-color="#c6c8cc"/>
    </linearGradient>
  </defs>
  <rect width="1200" height="900" fill="url(#bg)"/>
  <!-- lid / display -->
  <rect x="290" y="150" width="620" height="420" rx="22" fill="#0c0c0e"/>
  <rect x="304" y="164" width="592" height="392" rx="10" fill="url(#screen)"/>
  <!-- notch -->
  <rect x="552" y="164" width="96" height="16" rx="8" fill="#0c0c0e"/>
  <!-- base -->
  <path d="M240 570 h720 l-30 40 q-6 8 -18 8 H288 q-12 0 -18 -8 z" fill="url(#alu)"/>
  <path d="M560 570 h80 q0 12 -12 12 h-56 q-12 0 -12 -12 z" fill="#aeb0b5"/>
  <ellipse cx="600" cy="640" rx="380" ry="14" fill="#000" opacity="0.06"/>
  <text x="600" y="760" text-anchor="middle" font-family="system-ui, sans-serif" font-size="30" fill="#86868b">MacBook Pro 14&#8221; &#183; M1 Pro &#183; Silver</text>
  <text x="600" y="800" text-anchor="middle" font-family="system-ui, sans-serif" font-size="20" fill="#b0b0b5">placeholder photo 1 &#8212; front view</text>
</svg>
